<svg width="53" height="32" viewBox="0 0 53 32" fill="none" xmlns="http://www.w3.org/2000/svg">
<path d="M35.3913 4.17685C35.9849 3.51718 36.6446 2.97296 37.3208 2.54417C38.5082 1.80205 39.7615 1.40625 41.0479 1.40625V12.1753C40.1079 8.90999 38.0794 6.10637 35.3913 4.17685ZM51.4047 31.1737H13.2594C6.99263 31.1737 1.92969 26.0943 1.92969 19.8439C1.92969 13.8575 6.58033 8.94295 12.4678 8.53067V1.40625C13.7872 1.40625 15.09 1.78556 16.3104 2.54417C16.9866 2.95647 17.6462 3.50069 18.24 4.12737C20.6642 2.42873 23.5997 1.43923 26.7826 1.43923C26.7826 8.31628 24.3089 16.3147 16.2609 16.3312H26.7002C26.4033 14.9953 25.1829 14.0059 23.7317 13.9894H29.8006C28.3494 13.9894 27.129 14.9953 26.8321 16.3477H36.5622C38.5082 16.3477 40.4377 16.727 42.2518 17.4856C44.0494 18.2277 45.6986 19.3327 47.0673 20.7015C48.4526 22.0868 49.5411 23.7194 50.2832 25.517C51.0254 27.2982 51.4047 29.2277 51.4047 31.1737ZM18.8831 8.72855C19.1305 9.37175 19.7902 10.0973 20.7137 10.6251C21.6372 11.1528 22.5937 11.3672 23.2699 11.2682C23.0225 10.6251 22.3628 9.89946 21.4393 9.37175C20.5158 8.84398 19.5593 8.62958 18.8831 8.72855ZM32.7691 10.6251C31.8455 11.1528 30.889 11.3672 30.2129 11.2682C30.4602 10.6251 31.12 9.89946 32.0434 9.37175C32.967 8.84398 33.9235 8.62958 34.5996 8.72855C34.3688 9.37175 33.6926 10.0973 32.7691 10.6251Z" fill="#335CFF"/>
</svg>
